<svg width="500" height="316" viewBox="0 0 500 316" fill="none" xmlns="http://www.w3.org/2000/svg">
<path d="M473.506 289.41C461.296 289.41 452.489 283.678 447.329 272.377C447.175 272.05 447.175 271.672 447.298 271.335C447.431 270.998 447.697 270.722 448.013 270.579L461.429 264.612C461.613 264.53 461.786 264.5 461.981 264.5C462.44 264.5 462.89 264.745 463.135 265.153C466.272 270.375 467.008 271.008 467.243 271.212C469.388 273.123 471.595 274.094 473.792 274.094C480.525 274.094 481.537 269.639 481.537 266.993C481.537 263.907 477.93 261.516 475.233 259.994C473.659 259.248 471.984 258.461 470.328 257.715C468.663 256.969 466.977 256.193 465.26 255.396C460.366 253.097 456.851 250.747 454.818 248.407C452.172 245.372 450.833 241.439 450.833 236.718C450.833 230.516 453.081 225.305 457.536 221.239C462.052 217.203 467.6 215.149 474.027 215.149C483.407 215.149 490.518 219.788 495.126 228.922C495.453 229.586 495.188 230.404 494.534 230.741L481.568 237.341C481.363 237.444 481.128 237.505 480.893 237.505C480.505 237.505 479.984 237.341 479.79 236.861C478.329 233.122 476.949 229.597 471.841 229.597C470.451 229.597 469.112 230.046 468.275 230.782C467.324 231.64 466.742 232.805 466.711 233.929C466.589 238.7 468.969 240.069 476.377 243.073L477.113 243.37C485.522 246.833 492.173 249.572 495.167 252.555C498.365 255.764 500 260.137 500 265.542C500 272.408 497.323 278.232 492.03 282.85C486.932 287.203 480.699 289.41 473.506 289.41Z" fill="#221714"/>
<path d="M437.612 286.774H424.595C423.45 286.774 422.531 285.854 422.531 284.7V247.886C422.531 239.283 415.532 232.284 406.949 232.284C398.346 232.284 391.357 239.283 391.357 247.886V284.7C391.357 285.844 390.427 286.774 389.293 286.774H376.276C375.132 286.774 374.212 285.854 374.212 284.7V247.886C374.212 229.821 388.895 215.139 406.97 215.139C425.024 215.139 439.706 229.831 439.706 247.886V284.7C439.686 285.854 438.766 286.774 437.612 286.774Z" fill="#221714"/>
<path d="M328.887 289.4C308.411 289.4 291.747 272.745 291.747 252.269C291.747 231.803 308.411 215.139 328.887 215.139C349.353 215.139 366.018 231.793 366.018 252.269C366.018 272.745 349.353 289.4 328.887 289.4ZM328.887 232.416C317.944 232.416 309.024 241.326 309.024 252.269C309.024 263.212 317.944 272.122 328.887 272.122C339.83 272.122 348.73 263.222 348.73 252.269C348.73 241.326 339.83 232.416 328.887 232.416Z" fill="#221714"/>
<path d="M258.867 289.41C246.657 289.41 237.849 283.678 232.689 272.377C232.526 272.05 232.526 271.672 232.638 271.335C232.781 270.998 233.037 270.722 233.364 270.579L246.779 264.612C246.963 264.53 247.147 264.5 247.331 264.5C247.801 264.5 248.24 264.745 248.486 265.153C251.622 270.375 252.348 271.008 252.593 271.212C254.739 273.123 256.946 274.094 259.142 274.094C265.876 274.094 266.887 269.639 266.887 266.993C266.887 263.907 263.291 261.516 260.583 259.994C259.01 259.248 257.334 258.461 255.669 257.715C254.003 256.969 252.317 256.193 250.601 255.396C245.706 253.097 242.192 250.747 240.158 248.407C237.512 245.372 236.163 241.439 236.163 236.718C236.163 230.516 238.421 225.305 242.876 221.239C247.392 217.203 252.94 215.149 259.367 215.149C268.747 215.149 275.848 219.788 280.466 228.922C280.804 229.586 280.538 230.404 279.874 230.741L266.898 237.341C266.693 237.444 266.458 237.505 266.233 237.505C265.845 237.505 265.314 237.341 265.13 236.861C263.669 233.122 262.279 229.597 257.181 229.597C255.791 229.597 254.453 230.046 253.615 230.782C252.675 231.64 252.092 232.805 252.062 233.929C251.929 238.7 254.32 240.069 261.728 243.073L262.463 243.37C270.882 246.833 277.534 249.572 280.528 252.555C283.726 255.764 285.361 260.137 285.361 265.542C285.361 272.408 282.673 278.232 277.391 282.85C272.292 287.203 266.06 289.41 258.867 289.41Z" fill="#221714"/>
<path d="M187.64 289.41C167.502 289.41 151.205 273.624 150.561 253.475C149.907 233.009 166.01 215.823 186.476 215.169C207.125 214.485 224.117 230.526 224.781 251.084C224.801 251.554 224.801 252.024 224.791 252.494C224.791 252.545 224.801 252.606 224.801 252.668V286.886C224.801 288.03 223.872 288.95 222.737 288.95H209.72C208.576 288.95 207.656 288.03 207.656 286.886V283.586C202.047 287.172 195.63 289.165 188.877 289.389C188.458 289.4 188.049 289.41 187.64 289.41ZM187.681 232.427L187.027 232.437C176.084 232.795 167.471 241.98 167.818 252.913C168.176 263.682 176.871 272.122 187.651 272.122L188.304 272.112C193.607 271.938 198.522 269.721 202.139 265.858C205.766 261.996 207.667 256.939 207.503 251.636C207.156 240.866 198.45 232.427 187.681 232.427Z" fill="#221714"/>
<path d="M106.033 289.4C85.5571 289.4 68.9026 272.745 68.9026 252.269C68.9026 231.803 85.5571 215.139 106.033 215.139C126.499 215.139 143.153 231.793 143.153 252.269C143.153 252.821 143.133 253.373 143.123 253.914C143.082 255.028 142.162 255.896 141.059 255.896H86.5176C88.2239 265.153 96.4081 272.112 106.033 272.112C113.359 272.112 120.072 268.096 123.536 261.618C123.893 260.944 124.588 260.525 125.365 260.525H139.557C140.211 260.525 140.824 260.831 141.212 261.353C141.6 261.874 141.723 262.568 141.529 263.192C136.706 278.876 122.442 289.4 106.033 289.4ZM87.6619 241.99H124.404C120.348 234.736 113.471 230.23 106.033 230.23C98.5947 230.23 91.7183 234.726 87.6619 241.99Z" fill="#221714"/>
<path d="M32.8756 315.7C24.0272 315.7 16.5889 313.104 10.7547 307.985C5.02263 302.877 1.42607 295.673 0.0262674 286.559C-0.14743 285.476 0.557582 284.444 1.63042 284.22L16.3845 281.083C16.9465 280.97 17.5391 281.093 18.0193 281.42C18.4893 281.767 18.7856 282.278 18.8674 282.861C19.6439 289.144 20.9517 291.923 21.9326 293.139C24.5892 296.685 28.3288 298.371 33.4375 298.371C37.4633 298.371 40.692 297.124 43.3179 294.57C45.9234 292.026 47.1903 288.868 47.1903 284.925C47.1903 283.351 46.9758 281.921 46.5262 280.633C46.0971 279.387 45.4023 278.222 44.4725 277.169C43.512 276.066 42.2348 275.003 40.6511 274.002C39.0061 272.97 37.0137 271.958 34.7147 271.008L25.427 267.289C11.4086 261.588 4.30741 253.015 4.30741 241.796C4.30741 234.215 7.34201 227.798 13.3499 222.72C19.2454 217.693 26.6531 215.129 35.3789 215.129C47.2312 215.129 56.5904 220.707 63.2114 231.722C63.4975 232.192 63.5792 232.774 63.4464 233.316C63.2931 233.857 62.956 234.307 62.4655 234.583L50.6541 241.326C49.6732 241.888 48.4266 241.561 47.8545 240.591C45.341 236.412 43.4507 234.756 42.3064 234.113C40.4774 232.999 38.1376 232.458 35.246 232.458C31.6801 232.458 28.809 233.377 26.4999 235.298C24.3031 237.076 23.2507 239.242 23.2507 241.899C23.2507 245.485 26.3364 248.519 32.4465 250.941L42.0713 254.732C50.1943 257.889 56.2635 261.853 60.095 266.502C64.0186 271.264 66.011 277.149 66.011 283.985C66.011 293.088 62.8027 300.731 56.4883 306.688C50.1636 312.675 42.2144 315.7 32.8756 315.7Z" fill="#221714"/>
<path d="M453.357 200.998H427.466C425.198 200.998 423.348 199.159 423.348 196.901V123.661C423.358 87.7468 452.57 58.5349 488.485 58.5349C490.763 58.5349 492.592 60.3741 492.592 62.6423V88.5336C492.592 90.8121 490.763 92.6512 488.485 92.6512C471.391 92.6512 457.465 106.557 457.465 123.661V196.901C457.465 199.169 455.625 200.998 453.357 200.998Z" fill="#221714"/>
<path d="M333.495 205.626C297.581 205.626 268.369 176.404 268.369 140.49V67.2608C268.369 64.9925 270.208 63.1533 272.476 63.1533H298.368C300.656 63.1533 302.475 64.9925 302.475 67.2608V140.49C302.475 157.594 316.391 171.51 333.495 171.51C350.599 171.51 364.516 157.604 364.516 140.49V67.2608C364.516 64.9925 366.355 63.1533 368.633 63.1533H394.514C396.793 63.1533 398.622 64.9925 398.622 67.2608V140.49C398.622 176.404 369.4 205.626 333.495 205.626Z" fill="#221714"/>
<path d="M163.057 59.5464C131.761 64.5632 107.014 89.0239 101.762 120.198C100.781 124.162 103.213 126.655 107.29 126.655H159.89C164.743 126.655 168.738 122.68 168.738 117.817V65.3295C168.728 61.3242 166.5 58.9946 163.057 59.5464Z" fill="#CDA83F"/>
<path d="M186.189 59.5464C217.465 64.5632 242.233 89.0239 247.474 120.198C248.465 124.162 246.023 126.655 241.957 126.655H189.347C184.493 126.655 180.509 122.68 180.509 117.817V65.3295C180.509 61.3242 182.726 58.9946 186.189 59.5464Z" fill="#CDA83F"/>
<path d="M163.057 205.534C131.761 200.517 107.014 176.077 101.762 144.873C100.781 140.908 103.213 138.426 107.29 138.426H159.89C164.743 138.426 168.738 142.4 168.738 147.264V199.751C168.728 203.777 166.5 206.096 163.057 205.534Z" fill="#CDA83F"/>
<path d="M186.189 205.534C217.465 200.517 242.233 176.077 247.474 144.873C248.465 140.908 246.023 138.426 241.957 138.426H189.347C184.493 138.426 180.509 142.4 180.509 147.264V199.751C180.509 203.777 182.726 206.096 186.189 205.534Z" fill="#CDA83F"/>
<path d="M37.402 200.998H11.5108C9.24248 200.998 7.40332 199.158 7.40332 196.89V66.1264C7.40332 30.2118 33.5596 0.999916 72.5298 0.999916C80.5 0.999964 97.5 0.743544 98.6866 0.999916C101 1.4999 102.794 2.83907 102.794 5.11757V30.9985C102.794 33.2668 100.955 35.106 98.6866 35.106H72.5298C56.4372 35.106 43.1646 47.4385 41.6524 63.1429H88.8369C91.1154 63.1429 92.9444 64.982 92.9444 67.2503V93.1517C92.9444 95.42 91.1052 97.2592 88.8369 97.2592H41.4992V196.89C41.4992 199.158 39.6805 200.998 37.402 200.998Z" fill="#221714"/>
</svg>
